<svg width="90" height="89" viewBox="0 0 90 89" fill="none" xmlns="http://www.w3.org/2000/svg">
<path d="M45 3C68.2276 3 87 21.6117 87 44.5C87 67.3883 68.2276 86 45 86C21.7724 86 3 67.3883 3 44.5C3 21.6117 21.7724 3 45 3Z" stroke="white" stroke-width="6"/>
<path d="M26.5 48.5095C25.5 51.5095 23 50 21 49.5C18.5 49.2405 17.5 50.0095 17.5 50.0095C17.5 50.0095 15 51.5095 13 48.75C9.91907 44.4991 15.9101 41.5 19.5 41.5C24.5 41.5 28 43.5095 26.5 48.5095Z" fill="white"/>
<path d="M63.3504 48.0095C64.3504 51.0095 66.8503 49.5 68.8504 49C71.3504 48.7405 72.3504 49.5095 72.3504 49.5095C72.3504 49.5095 74.8504 51.0095 76.8504 48.25C79.9313 43.9991 73.9402 41 70.3504 41C65.3504 41 61.8504 43.0095 63.3504 48.0095Z" fill="white"/>
<path d="M61.2041 57.8258C60.1394 61.4163 54.1731 64 45.5 64C36.8269 64 30.8606 61.4163 29.7959 57.8258C27.4017 49.7516 29.7959 51.0817 45.5 51.0817C61.2041 51.0817 63.5983 49.7516 61.2041 57.8258Z" fill="white"/>
</svg>
